<?xml version="1.0"?>
<svg xmlns="http://www.w3.org/2000/svg" xmlns:xlink="http://www.w3.org/1999/xlink" id="Gradient" viewBox="0 0 64 64" width="512" height="512"><defs><linearGradient id="New_Gradient_Swatch_5" x1="2.585" y1="7" x2="57.5" y2="61.915" gradientUnits="userSpaceOnUse"><stop offset="0" stop-color="#662d91"/><stop offset="0.437" stop-color="#3873b3"/><stop offset="1" stop-color="#00c9dd"/></linearGradient></defs><path d="M57.7,12.117l-10-9.83c-.005,0-.013-.007-.018-.012a1,1,0,0,0-.273-.18.87.87,0,0,0-.09-.032.951.951,0,0,0-.264-.052C47.037,2.01,47.019,2,47,2H8A1,1,0,0,0,7,3V61a1,1,0,0,0,1,1H57a1,1,0,0,0,1-1V12.83A1,1,0,0,0,57.7,12.117ZM54.586,12H48V5.414ZM9,60V4H46v9a1,1,0,0,0,1,1h9V60ZM44,7H11V5H44ZM21,10H11V8H21Zm3,2H12a1,1,0,0,0-1,1V25a1,1,0,0,0,1,1H24a1,1,0,0,0,1-1V13A1,1,0,0,0,24,12Zm-6,7a1,1,0,1,1,1-1A1,1,0,0,1,18,19Zm2.816,5H15.184a2.982,2.982,0,0,1,5.632,0ZM23,24h-.1a5.009,5.009,0,0,0-3.067-3.641,3,3,0,1,0-3.664,0A5.009,5.009,0,0,0,13.1,24H13V14H23Zm1,4H12a1,1,0,0,0-1,1V41a1,1,0,0,0,1,1H24a1,1,0,0,0,1-1V29A1,1,0,0,0,24,28Zm-6,7a1,1,0,1,1,1-1A1,1,0,0,1,18,35Zm2.816,5H15.184a2.982,2.982,0,0,1,5.632,0ZM23,40h-.1a5.009,5.009,0,0,0-3.067-3.641,3,3,0,1,0-3.664,0A5.009,5.009,0,0,0,13.1,40H13V30H23Zm1,4H12a1,1,0,0,0-1,1V57a1,1,0,0,0,1,1H24a1,1,0,0,0,1-1V45A1,1,0,0,0,24,44Zm-6,7a1,1,0,1,1,1-1A1,1,0,0,1,18,51Zm2.816,5H15.184a2.982,2.982,0,0,1,5.632,0ZM23,56h-.1a5.009,5.009,0,0,0-3.067-3.641,3,3,0,1,0-3.664,0A5.009,5.009,0,0,0,13.1,56H13V46H23Zm4-43h2v2H27Zm17,2H31V13H44ZM27,17h2v2H27Zm4,0H43v2H31Zm0,3h8v2H31Zm-4,3h2v2H27Zm4,0H48v2H31Zm-4,6h2v2H27Zm15,0v2H31V29ZM27,33h2v2H27Zm4,0H46v2H31Zm0,3H41v2H31Zm-4,3h2v2H27Zm4,0H44v2H31Zm-4,6h2v2H27Zm22,2H31V45H49ZM27,49h2v2H27Zm22,2H31V49H49ZM31,52H43v2H31Zm-4,3h2v2H27Zm4,0H52v2H31ZM23,8h6v2H23Z" style="fill:url(#New_Gradient_Swatch_5)"/></svg>
