<svg id="Flat" height="512" viewBox="0 0 64 64" width="512" xmlns="http://www.w3.org/2000/svg"><path d="m62 23-33 33-21.059-21.059 32.059-32.941z" fill="#d4eded"/><path d="m29 56 .941-29.186a2 2 0 0 1 1.871-1.931l30.188-1.841z" fill="#acdee0"/><path d="m40 2v31a2 2 0 0 1 -2 2h-30.059z" fill="#c0e5e7"/><path d="m27 25.586h2v2.828h-2z" fill="#0378a3" transform="matrix(.707 -.707 .707 .707 -10.891 27.707)"/><path d="m31 21.586h2v2.828h-2z" fill="#0378a3" transform="matrix(.707 -.707 .707 .707 -6.891 29.364)"/><path d="m36.586 22h2.828v2h-2.828z" fill="#0378a3" transform="matrix(.707 -.707 .707 .707 -5.134 33.607)"/><path d="m40.586 26h2.828v2h-2.828z" fill="#0378a3" transform="matrix(.707 -.707 .707 .707 -6.79 37.607)"/><path d="m41 31.586h2v2.828h-2z" fill="#0378a3" transform="matrix(.707 -.707 .707 .707 -11.033 39.364)"/><path d="m37 35.586h2v2.828h-2z" fill="#0378a3" transform="matrix(.707 -.707 .707 .707 -15.033 37.707)"/><path d="m30.586 36h2.828v2h-2.828z" fill="#0378a3" transform="matrix(.707 -.707 .707 .707 -16.79 33.464)"/><path d="m26.586 32h2.828v2h-2.828z" fill="#0378a3" transform="matrix(.707 -.707 .707 .707 -15.134 29.464)"/><path d="m29.343 24.343h11.314v11.314h-11.314z" fill="#06aae9" transform="matrix(.707 -.707 .707 .707 -10.962 33.536)"/><g fill="#0378a3"><path d="m28.293 8.293-4.707 4.707h-4.586a1 1 0 0 0 -.707.293l-3.707 3.707h-3.586a1 1 0 0 0 -.707.293l-5 5 1.414 1.414 4.707-4.707h2.586v3.586l-3.707 3.707 1.414 1.414 4-4a1 1 0 0 0 .293-.707v-4.586l3.414-3.414h4.586a1 1 0 0 0 .707-.293l5-5z"/><path d="m2.586 24h2.828v2h-2.828z" transform="matrix(.707 -.707 .707 .707 -16.506 10.151)"/><path d="m9.707 44.707a1 1 0 0 0 .293-.707v-3.586l4.707-4.707-1.414-1.414-5 5a1 1 0 0 0 -.293.707v3.586l-6.707 6.707 1.414 1.414z"/><path d="m22.293 44.293-6 6a1 1 0 0 0 -.293.707v7.586l-2.707 2.707 1.414 1.414 3-3a1 1 0 0 0 .293-.707v-7.586l5.707-5.707z"/><path d="m10.414 49h3.586a1 1 0 0 0 .74-.327l10-11-1.48-1.346-9.702 10.673h-3.558a1 1 0 0 0 -.707.293l-8 8 1.414 1.414z"/><path d="m29.293 46.293-5 5a1 1 0 0 0 -.293.707v3.586l-3.707 3.707 1.414 1.414 4-4a1 1 0 0 0 .293-.707v-3.586l4.707-4.707z"/><path d="m1.136 56.5h12.728v2h-12.728z" transform="matrix(.707 -.707 .707 .707 -38.462 22.145)"/><path d="m4.707 37.707a1 1 0 0 0 .293-.707v-3.586l2.707-2.707-1.414-1.414-3 3a1 1 0 0 0 -.293.707v3.586l-1.707 1.707 1.414 1.414z"/><path d="m28.757 57h8.485v2h-8.485z" transform="matrix(.707 -.707 .707 .707 -31.347 40.322)"/><path d="m36.379 51.5h4.243v2h-4.243z" transform="matrix(.707 -.707 .707 .707 -25.847 42.601)"/><path d="m50.293 28.293-3 3a1 1 0 0 0 -.293.707v10.586l-6.707 6.707 1.414 1.414 2.293-2.293v3.172l-5.707 5.707 1.414 1.414 6-6a1 1 0 0 0 .293-.707v-5.586l2.707-2.707a1 1 0 0 0 .293-.707v-10.586l2.707-2.707z"/></g></svg>