<svg height="472pt" viewBox="-3 0 471 472" width="472pt" xmlns="http://www.w3.org/2000/svg"><path d="m294.101562 456-21.601562-72h-80l-21.601562 72h-26.398438v16h176v-16zm0 0" fill="#d6d9db"/><path d="m440.5 80h-416c-13.253906 0-24 10.746094-24 24v232h464v-232c0-13.253906-10.746094-24-24-24zm0 0" fill="#4398d1"/><path d="m.5 360c0 13.253906 10.746094 24 24 24h416c13.253906 0 24-10.746094 24-24v-24h-464zm0 0" fill="#d6d9db"/><path d="m282.101562 416-9.601562-32h-80l-9.601562 32zm0 0" fill="#c7cacc"/><path d="m72.5 0c-13.253906 0-24 10.746094-24 24v312h368v-312c0-13.253906 10.746094-24 24-24zm0 0" fill="#87ced9"/><path d="m416.5 104-232 232h232zm0 0" fill="#71c4d1"/><g fill="#5eb3d1"><path d="m216.5 40h64v16h-64zm0 0"/><path d="m184.5 40h16v16h-16zm0 0"/><path d="m120.5 184c-13.253906 0-24-10.746094-24-24s10.746094-24 24-24 24 10.746094 24 24-10.746094 24-24 24zm0-32c-4.417969 0-8 3.582031-8 8s3.582031 8 8 8 8-3.582031 8-8-3.582031-8-8-8zm0 0"/><path d="m232.5 184c-13.253906 0-24-10.746094-24-24s10.746094-24 24-24 24 10.746094 24 24-10.746094 24-24 24zm0-32c-4.417969 0-8 3.582031-8 8s3.582031 8 8 8 8-3.582031 8-8-3.582031-8-8-8zm0 0"/><path d="m344.5 184c-13.253906 0-24-10.746094-24-24s10.746094-24 24-24 24 10.746094 24 24-10.746094 24-24 24zm0-32c-4.417969 0-8 3.582031-8 8s3.582031 8 8 8 8-3.582031 8-8-3.582031-8-8-8zm0 0"/><path d="m120.5 312c-13.253906 0-24-10.746094-24-24s10.746094-24 24-24 24 10.746094 24 24-10.746094 24-24 24zm0-32c-4.417969 0-8 3.582031-8 8s3.582031 8 8 8 8-3.582031 8-8-3.582031-8-8-8zm0 0"/><path d="m232.5 312c-13.253906 0-24-10.746094-24-24s10.746094-24 24-24 24 10.746094 24 24-10.746094 24-24 24zm0-32c-4.417969 0-8 3.582031-8 8s3.582031 8 8 8 8-3.582031 8-8-3.582031-8-8-8zm0 0"/><path d="m344.5 312c-13.253906 0-24-10.746094-24-24s10.746094-24 24-24 24 10.746094 24 24-10.746094 24-24 24zm0-32c-4.417969 0-8 3.582031-8 8s3.582031 8 8 8 8-3.582031 8-8-3.582031-8-8-8zm0 0"/><path d="m104.5 72h16v16h-16zm0 0"/><path d="m136.5 72h72v16h-72zm0 0"/><path d="m224.5 72h128v16h-128zm0 0"/><path d="m136.5 104h112v16h-112zm0 0"/><path d="m264.5 104h48v16h-48zm0 0"/><path d="m104.5 200h16v16h-16zm0 0"/><path d="m136.5 200h40v16h-40zm0 0"/><path d="m192.5 200h160v16h-160zm0 0"/><path d="m136.5 232h64v16h-64zm0 0"/><path d="m216.5 232h96v16h-96zm0 0"/><path d="m464.5 40h-48v-16c0-13.253906 10.746094-24 24-24s24 10.746094 24 24zm0 0"/></g></svg>