<svg height="425pt" viewBox="-15 0 425 425.12384" width="425pt" xmlns="http://www.w3.org/2000/svg"><path d="m16.011719 171.332031s19.019531 1.988281 49.605469.992188c30.589843-.992188 72.492187 11.5 95.460937 50.625 0 0 71.082031-20.136719 100.664063 39.292969 0 0 23.25 5.816406 26.355468 2.359374 3.097656-3.457031-18.34375-30.207031-12.738281-117.835937 0 0-13.414063-13.683594-28.214844-17.039063-14.804687-3.355468-20.71875 5.5-36.539062-9.890624-15.816407-15.390626-28.722657-39.242188-22.292969-45.988282 6.433594-6.75 14.679688-6.867187 14.679688-6.867187s.203124-18.785157 13.699218-19.183594 63.265625 8.84375 74.882813 24.980469c11.617187 16.136718 15.710937 52.15625 38.992187 82.15625 23.285156 30.003906 67.847656 79.589844 55.210938 175.765625 0 0-140.933594 78.636719-260.121094 26.960937 0 0-8.554688 34.296875-48.421875 58.121094 0 0-31.03125-51.152344-57.457031-114.667969-26.425782-63.515625-3.765625-129.78125-3.765625-129.78125zm0 0" fill="#d7e9ff" fill-rule="evenodd"/><g fill="#0e65e5"><path d="m74.90625 425.125-3.515625-5.800781c-.3125-.515625-31.605469-52.324219-57.925781-115.585938-27.105469-65.152343-4.875-131.808593-3.914063-134.613281l1.761719-5.140625 5.40625.558594c.1875.019531 19.003906 1.917969 48.679688.960937 32.039062-1.0625 74.164062 11.605469 98.9375 49.730469 17.351562-3.359375 74.464843-9.902344 102.027343 41.089844 4.976563 1.125 9.976563 1.980469 13.601563 2.355469-4.660156-13.664063-15.296875-45.160157-11.617188-109.132813-4.042968-3.601563-13.242187-11.019531-22.714844-13.167969-4.050781-.914062-7.320312-.699218-10.773437-.46875-7.683594.5-16.386719 1.097656-29.011719-11.183594-15.789062-15.359374-33.847656-43.648437-22.476562-55.59375 4.453125-4.667968 9.511718-6.910156 13.375-7.988281 1.621094-8.824219 6.933594-19.796875 19.746094-20.171875 11.945312-.335937 66.179687 7.757813 80.621093 27.8125 5.285157 7.34375 8.910157 17.585938 13.109375 29.449219 5.898438 16.667969 12.582032 35.554687 25.734375 52.515625l4.273438 5.449219c24.152343 30.671875 64.582031 82 52.3125 175.390625l-.449219 3.402344-2.992188 1.667968c-1.472656.820313-36.570312 20.234375-86.957031 33.5-45.117187 11.878906-110.945312 20.59375-172.421875-3.441406-4.925781 12.085938-18.097656 36.460938-48.992187 54.921875zm-53.917969-246.539062c-4.417969 16.308593-15.914062 69.433593 5.085938 119.90625 20.738281 49.847656 44.597656 92.460937 53.449219 107.734374 31.832031-21.632812 39.433593-49.941406 39.507812-50.242187l1.988281-7.746094 7.34375 3.15625c105.226563 45.621094 230.199219-14.332031 251.074219-25.070312 10.109375-85.441407-25.960938-131.234375-49.9375-161.679688l-4.335938-5.523437c-14.507812-18.703125-21.890624-39.566406-27.820312-56.332032-3.847656-10.878906-7.171875-20.269531-11.3125-26.023437-9.3125-12.933594-55.078125-22.734375-69.140625-22.144531-6.757813.199218-7.074219 12.335937-7.074219 12.457031l-.132812 6.601563-6.601563.125c-.140625.003906-5.566406.273437-9.828125 4.75-1.121094 3.554687 7.136719 21.820312 22.109375 36.386718 8.265625 8.039063 11.917969 7.792969 18.578125 7.347656 3.886719-.261718 8.710938-.582031 14.710938.777344 16.570312 3.761719 30.972656 18.304688 31.578125 18.925782l2.132812 2.171874-.195312 3.042969c-4.078125 63.683594 6.332031 94.203125 10.773437 107.234375 2.230469 6.535156 3.703125 10.851563.234375 14.71875-1.898437 2.113282-5.863281 6.519532-33.09375-.296875l-3.054687-.761719-1.398438-2.816406c-26.660156-53.558594-90.019531-36.519531-92.703125-35.769531l-5.0625 1.421875-2.671875-4.535156c-21.300781-36.289063-59.964844-48.175782-89.355468-47.257813-21.277344.699219-36.96875-.023437-44.847657-.558593zm0 0"/><path d="m310.328125 118.164062c-7.433594-18.578124-11.730469-35.625-18.757813-45.386718-.738281-1.023438-1.632812-2.015625-2.65625-2.980469 5.15625 14.472656 10.976563 31.878906 21.414063 48.367187zm0 0" fill-rule="evenodd"/><path d="m310.332031 124.988281c-2.269531 0-4.480469-1.136719-5.769531-3.175781-10.125-15.988281-15.898438-32.289062-20.996094-46.679688l-1.078125-3.050781c-1.0625-2.972656.058594-6.285156 2.699219-8.007812 2.644531-1.726563 6.128906-1.40625 8.417969.753906 1.367187 1.296875 2.550781 2.628906 3.507812 3.957031 5.292969 7.347656 8.925781 17.617188 13.140625 29.503906 1.941406 5.480469 4.011719 11.328126 6.414063 17.335938 1.316406 3.273438-.085938 7.007812-3.226563 8.613281-1 .507813-2.058594.75-3.109375.75zm0 0"/><path d="m360.132812 195.988281c11.171876 27.417969 17.921876 62.21875 11.984376 107.40625 0 0-140.933594 78.636719-260.121094 26.957031 0 0-8.554688 34.296876-48.421875 58.125 0 0-10.398438-17.167968-24.257813-43.875 20.113282 41.820313 37.910156 71.179688 37.910156 71.179688 39.867188-23.824219 48.421876-58.121094 48.421876-58.121094 119.191406 51.675782 260.125-26.960937 260.125-26.960937 8.113281-61.75-7.367188-104.222657-25.640626-134.710938zm0 0" fill-rule="evenodd"/><path d="m77.234375 422.613281c-2.3125 0-4.5625-1.171875-5.84375-3.289062-.179687-.296875-18.199219-30.125-38.230469-71.761719-1.617187-3.363281-.234375-7.398438 3.101563-9.066406 3.34375-1.667969 7.398437-.34375 9.113281 2.964844 8.859375 17.070312 16.332031 30.277343 20.496094 37.464843 31.828125-21.636719 39.429687-49.945312 39.503906-50.246093.5-1.929688 1.820312-3.566407 3.617188-4.445313 1.789062-.878906 3.878906-.933594 5.71875-.140625 105.234374 45.628906 230.207031-14.332031 251.074218-25.070312 4.382813-37.058594.460938-69.957032-11.976562-100.464844-1.347656-3.300782.078125-7.085938 3.269531-8.683594 3.191406-1.582031 7.070313-.464844 8.910156 2.597656 24.742188 41.28125 33.425781 86.789063 26.550781 139.117188-.28125 2.140625-1.558593 4.023437-3.441406 5.070312-1.472656.820313-36.566406 20.234375-86.957031 33.5-45.117187 11.878906-110.945313 20.59375-172.421875-3.441406-4.925781 12.085938-18.097656 36.460938-48.992188 54.921875-1.09375.660156-2.300781.972656-3.492187.972656zm-5.921875-30.914062c3.375 6.109375 6.183594 11.03125 8.210938 14.527343 31.832031-21.632812 39.433593-49.941406 39.507812-50.242187.496094-1.933594 1.816406-3.566406 3.613281-4.445313 1.789063-.882812 3.882813-.9375 5.722657-.144531 105.226562 45.621094 230.199218-14.332031 251.074218-25.070312 1.691406-14.335938 2.128906-28.109375 1.304688-41.394531-.375 6.335937-.996094 12.785156-1.855469 19.351562-.285156 2.140625-1.558594 4.019531-3.445313 5.070312-1.46875.816407-36.566406 20.234376-86.953124 33.496094-45.117188 11.878906-110.949219 20.601563-172.425782-3.4375-4.695312 11.523438-16.875 34.203125-44.753906 52.289063zm314.460938-61h.066406zm-13.65625-27.304688h.070312zm0 0"/><path d="m247.140625 129.726562c4.921875 1.117188 9.632813 3.402344 13.804687 5.917969.152344-5.152343.394532-10.53125.753907-16.183593 0 0-13.410157-13.683594-28.214844-17.042969-14.800781-3.355469-20.71875 5.496093-36.535156-9.894531-3.609375-3.511719-7.050781-7.472657-10.164063-11.566407 1.242188 10.214844 11.648438 27.035157 23.816406 38.875 15.820313 15.390625 21.738282 6.535157 36.539063 9.894531zm0 0" fill-rule="evenodd"/><path d="m260.949219 142.472656c-1.222657 0-2.445313-.328125-3.527344-.980468-4.347656-2.628907-8.207031-4.296876-11.792969-5.109376-4.050781-.914062-7.320312-.699218-10.773437-.46875-7.683594.5-16.386719 1.097657-29.011719-11.183593-11.613281-11.304688-24.222656-29.679688-25.835938-42.945313-.371093-3.054687 1.351563-5.984375 4.207032-7.144531 2.867187-1.164063 6.132812-.261719 8.003906 2.191406 3.054688 4.011719 6.25 7.648438 9.492188 10.804688 8.269531 8.042969 11.945312 7.796875 18.574218 7.347656 3.882813-.257813 8.707032-.585937 14.714844.78125 16.570312 3.761719 30.972656 18.300781 31.582031 18.917969 1.355469 1.386718 2.0625 3.285156 1.933594 5.214844-.355469 5.570312-.597656 10.871093-.742187 15.949218-.070313 2.421875-1.421876 4.628906-3.554688 5.792969-1.019531.554687-2.144531.832031-3.269531.832031zm-21.539063-20.414062c2.71875 0 5.785156.222656 9.242188 1.007812 1.9375.441406 3.902344 1.039063 5.902344 1.800782.042968-.867188.085937-1.742188.136718-2.621094-4.039062-3.609375-13.242187-11.023438-22.714844-13.171875-4.054687-.917969-7.320312-.699219-10.773437-.46875-3.757813.242187-7.761719.515625-12.363281-.714844 2.027344 2.421875 4.207031 4.792969 6.523437 7.046875 8.265625 8.042969 11.917969 7.792969 18.578125 7.347656 1.648438-.105468 3.464844-.226562 5.46875-.226562zm0 0"/></g><path d="m280.03125 81.921875c0 41.472656-33.621094 75.089844-75.09375 75.089844s-75.09375-33.617188-75.09375-75.089844c0-41.476563 33.621094-75.09375 75.09375-75.09375s75.09375 33.617187 75.09375 75.09375zm0 0" fill="#94c1ff"/><path d="m204.9375 163.839844c-45.167969 0-81.921875-36.75-81.921875-81.917969 0-45.171875 36.753906-81.921875 81.921875-81.921875s81.917969 36.75 81.917969 81.921875c0 45.167969-36.746094 81.917969-81.917969 81.917969zm0-150.1875c-37.644531 0-68.265625 30.625-68.265625 68.269531 0 37.640625 30.621094 68.265625 68.265625 68.265625 37.640625 0 68.265625-30.625 68.265625-68.265625 0-37.644531-30.625-68.269531-68.265625-68.269531zm0 0" fill="#0e65e5"/><path d="m150.324219 88.746094c-3.769531 0-6.828125-3.058594-6.828125-6.824219 0-33.878906 27.5625-61.441406 61.441406-61.441406 3.769531 0 6.824219 3.058593 6.824219 6.828125 0 3.765625-3.054688 6.824218-6.824219 6.824218-26.351562 0-47.789062 21.4375-47.789062 47.789063 0 3.765625-3.054688 6.824219-6.824219 6.824219zm0 0" fill="#fff"/><path d="m239.070312 81.921875c0 18.847656-15.28125 34.132813-34.132812 34.132813s-34.132812-15.285157-34.132812-34.132813c0-18.851563 15.28125-34.136719 34.132812-34.136719s34.132812 15.285156 34.132812 34.136719zm0 0" fill="#5c9eff"/><path d="m204.9375 122.878906c-22.585938 0-40.960938-18.371094-40.960938-40.957031 0-22.589844 18.375-40.960937 40.960938-40.960937s40.960938 18.371093 40.960938 40.960937c0 22.585937-18.375 40.957031-40.960938 40.957031zm0-68.265625c-15.058594 0-27.308594 12.25-27.308594 27.308594 0 15.054687 12.25 27.304687 27.308594 27.304687 15.054688 0 27.304688-12.25 27.304688-27.304687 0-15.058594-12.25-27.308594-27.304688-27.308594zm0 0" fill="#0e65e5"/><path d="m231.804688 330.484375c-48.921876 0-97.179688-43.226563-99.730469-45.542969-2.785157-2.53125-2.992188-6.847656-.460938-9.636718 2.539063-2.785157 6.859375-2.996094 9.644531-.464844.714844.644531 71.925782 64.378906 121.5 33.394531 3.203126-1.992187 7.410157-1.023437 9.40625 2.175781 2 3.195313 1.03125 7.40625-2.171874 9.40625-12.214844 7.636719-25.226563 10.667969-38.1875 10.667969zm0 0" fill="#0e65e5"/><path d="m170.808594 252.585938c-2.480469 0-4.871094-1.351563-6.082032-3.714844l-17.5-34.164063c-1.714843-3.351562-.386718-7.464843 2.964844-9.1875 3.355469-1.726562 7.464844-.394531 9.1875 2.964844l17.5 34.164063c1.71875 3.355468.390625 7.46875-2.960937 9.1875-1 .507812-2.058594.75-3.109375.75zm0 0" fill="#0e65e5"/><path d="m314.164062 341.332031c-3.769531 0-6.828124-3.058593-6.828124-6.824219v-27.308593c0-3.765625 3.058593-6.824219 6.828124-6.824219 3.769532 0 6.828126 3.058594 6.828126 6.824219v27.308593c0 3.765626-3.058594 6.824219-6.828126 6.824219zm0 0" fill="#fff"/><path d="m327.816406 327.679688h-27.304687c-3.769531 0-6.828125-3.058594-6.828125-6.828126 0-3.765624 3.058594-6.824218 6.828125-6.824218h27.304687c3.769532 0 6.828125 3.058594 6.828125 6.824218 0 3.769532-3.054687 6.828126-6.828125 6.828126zm0 0" fill="#fff"/></svg>