<svg id="icons" enable-background="new 0 0 64 64" height="512" viewBox="0 0 64 64" width="512" xmlns="http://www.w3.org/2000/svg"><path d="m32 21.502c1.66 0 3 1.35 3 3 0 1.66-1.33 2.988-2.99 3h-.01c-1.649 0-3-1.34-3-3 0-1.65 1.351-3 3-3z" fill="#aab2bd"/><path d="m5 58.5h54 1v2c0 1.66-1.34 3-3 3h-50c-1.66 0-3-1.34-3-3v-2z" fill="#ccd1d9"/><path d="m59.01 53.51h-.01v4.99h-54v-4.99c0-14.91 12.09-27 27-27.01h.01c14.921.01 27 12.1 27 27.01z" fill="#ccd1d9"/><path d="m32.01 26.5h-.01c-.842.002-1.674.045-2.497.121 13.747 1.27 24.502 12.822 24.502 26.889h-.01v4.99h5.005v-4.99h.01c0-14.91-12.079-27-27-27.01z" fill="#aab2bd"/><path d="m49.001 22.51c0 .551-.45 1-1 1h-4.002c-.55 0-1-.449-1-1v-8c0-.549.45-1 1-1h4.002c.55 0 1 .451 1 1z" fill="#656d78"/><path d="m57 14.51c1.11 0 2 .891 2 2v5c0 1.1-.89 2-2 2h-6l-1-1h-.999v-8h1.999l1-3.5c.29-1.01.67-1.5 1.5-1.5s1.5.67 1.5 1.5v3.5z" fill="#eac6bb"/><path d="m38.57 1.936c-.921-.926-2.15-1.436-3.462-1.436-1.146 0-2.231.389-3.106 1.105-.874-.716-1.96-1.105-3.106-1.105-1.312 0-2.541.51-3.458 1.434-.926.922-1.437 2.152-1.437 3.461 0 1.311.511 2.539 1.436 3.461l5.857 5.857c.188.188.442.293.707.293.266 0 .52-.105.707-.293l5.506-5.51.353-.346c.926-.924 1.436-2.152 1.436-3.463 0-1.308-.51-2.539-1.433-3.458z" fill="#ed5565"/><path d="m15.002 11.504c-3.859 0-7 3.141-7 7s3.141 7 7 7 7-3.141 7-7-3.141-7-7-7z" fill="#5d9cec"/><path d="m15.002 21.504c-.553 0-1-.447-1-1v-4c0-.553.447-1 1-1s1 .447 1 1v4c0 .553-.447 1-1 1z" fill="#4a89dc"/><path d="m17.002 19.504h-4c-.553 0-1-.447-1-1s.447-1 1-1h4c.553 0 1 .447 1 1s-.447 1-1 1z" fill="#4a89dc"/><path d="m60.999 59.5h-57.998c-.553 0-1-.447-1-1s.447-1 1-1h57.998c.553 0 1 .447 1 1s-.447 1-1 1z" fill="#e6e9ed"/></svg>